<svg width="38" height="48" viewBox="0 0 38 48" fill="none" xmlns="http://www.w3.org/2000/svg">
<path d="M25.8753 4.69634C28.2005 6.54153 29.906 8.09309 30.9919 9.35103C32.0778 10.609 32.5332 11.4785 32.3581 11.9596C32.1976 12.4006 31.9897 12.8471 31.7344 13.2991C31.4791 13.751 31.1435 14.4234 30.7277 15.3164C30.3119 16.2094 29.7902 17.5179 29.1627 19.2419L25.0694 30.4881C24.1063 33.1343 23.2253 35.2428 22.4266 36.8137C21.5731 38.4101 20.8583 39.6256 20.2821 40.4602L22.3268 41.2044L23.8673 46.3283L23.0359 47.1154L3.91129 40.1546L2.49667 34.8722L6.54884 33.2822L7.75165 33.72C7.93369 34.4674 8.26704 35.1108 8.7517 35.6505C9.18168 36.2156 9.85774 36.666 10.7799 37.0017L14.0275 38.1837C14.7021 37.2033 15.4789 35.9423 16.3579 34.4006C17.1968 32.8443 18.0248 30.9435 18.842 28.6983L19.4111 27.1347L11.0516 24.092L9.97595 19.0011L10.7691 18.132L21.2936 21.9626L23.5701 15.708C24.1976 13.984 24.7612 12.6226 25.2609 11.624C25.7059 10.6508 26.0305 9.88359 26.2348 9.32228C26.4829 8.64069 25.8909 7.58522 24.4587 6.15585L25.8753 4.69634Z" fill="white"/>
</svg>
