<svg width="37" height="48" viewBox="0 0 37 48" fill="none" xmlns="http://www.w3.org/2000/svg">
<path d="M11.9294 43.2333C9.60423 41.3882 7.89871 39.8366 6.81279 38.5787C5.72687 37.3207 5.27147 36.4512 5.44659 35.9701C5.60711 35.529 5.81502 35.0826 6.07032 34.6306C6.32562 34.1787 6.66119 33.5062 7.07701 32.6133C7.49283 31.7203 8.01449 30.4118 8.64198 28.6878L12.7353 17.4415C13.6984 14.7954 14.5794 12.6869 15.3781 11.116C16.2316 9.51961 16.9464 8.30412 17.5226 7.46953L15.4779 6.72529L13.9374 1.60143L14.7688 0.814293L33.8934 7.77509L35.308 13.0575L31.2558 14.6474L30.053 14.2097C29.871 13.4623 29.5376 12.8188 29.053 12.2792C28.623 11.7141 27.9469 11.2637 27.0248 10.928L23.7772 9.74601C23.1026 10.7264 22.3257 11.9874 21.4468 13.5291C20.6079 15.0854 19.7799 16.9861 18.9627 19.2314L18.3936 20.795L26.7531 23.8376L27.8287 28.9286L27.0356 29.7977L16.5111 25.9671L14.2346 32.2217C13.6071 33.9457 13.0435 35.3071 12.5438 36.3057C12.0988 37.2789 11.7741 38.0461 11.5698 38.6074C11.3218 39.289 11.9138 40.3445 13.346 41.7738L11.9294 43.2333Z" fill="white"/>
</svg>
