<svg width="66" height="89" viewBox="0 0 66 89" fill="none" xmlns="http://www.w3.org/2000/svg">
<rect x="5" y="17" width="55" height="55" rx="27.5" fill="#0E1E35"/>
<path d="M11.9294 67.2333C9.60423 65.3882 7.89871 63.8366 6.81279 62.5787C5.72687 61.3207 5.27147 60.4512 5.44659 59.9701C5.60711 59.529 5.81502 59.0826 6.07032 58.6306C6.32562 58.1787 6.66119 57.5062 7.07701 56.6133C7.49283 55.7203 8.01449 54.4118 8.64198 52.6878L12.7353 41.4415C13.6984 38.7954 14.5794 36.6869 15.3781 35.116C16.2316 33.5196 16.9464 32.3041 17.5226 31.4695L15.4779 30.7253L13.9374 25.6014L14.7688 24.8143L33.8934 31.7751L35.308 37.0575L31.2558 38.6474L30.053 38.2097C29.871 37.4623 29.5376 36.8188 29.053 36.2792C28.623 35.7141 27.9469 35.2637 27.0248 34.928L23.7772 33.746C23.1026 34.7264 22.3257 35.9874 21.4468 37.5291C20.6079 39.0854 19.7799 40.9861 18.9627 43.2314L18.3936 44.795L26.7531 47.8376L27.8287 52.9286L27.0356 53.7977L16.5111 49.9671L14.2346 56.2217C13.6071 57.9457 13.0435 59.3071 12.5438 60.3057C12.0988 61.2789 11.7741 62.0461 11.5698 62.6074C11.3218 63.289 11.9138 64.3445 13.346 65.7738L11.9294 67.2333Z" fill="white"/>
<path d="M53.8753 21.6963C56.2005 23.5415 57.906 25.0931 58.9919 26.351C60.0778 27.609 60.5332 28.4785 60.3581 28.9596C60.1976 29.4006 59.9897 29.8471 59.7344 30.2991C59.4791 30.751 59.1435 31.4234 58.7277 32.3164C58.3119 33.2094 57.7902 34.5179 57.1627 36.2419L53.0694 47.4881C52.1063 50.1343 51.2253 52.2428 50.4266 53.8137C49.5731 55.4101 48.8583 56.6256 48.2821 57.4602L50.3268 58.2044L51.8673 63.3283L51.0359 64.1154L31.9113 57.1546L30.4967 51.8722L34.5488 50.2822L35.7516 50.72C35.9337 51.4674 36.267 52.1108 36.7517 52.6505C37.1817 53.2156 37.8577 53.666 38.7799 54.0017L42.0275 55.1837C42.7021 54.2033 43.4789 52.9423 44.3579 51.4006C45.1968 49.8443 46.0248 47.9435 46.842 45.6983L47.4111 44.1347L39.0516 41.092L37.976 36.0011L38.7691 35.132L49.2936 38.9626L51.5701 32.708C52.1976 30.984 52.7612 29.6226 53.2609 28.624C53.7059 27.6508 54.0305 26.8836 54.2348 26.3223C54.4829 25.6407 53.8909 24.5852 52.4587 23.1559L53.8753 21.6963Z" fill="white"/>
</svg>
